<mxfile host="www.draw.io" modified="2020-03-23T10:21:58.296Z" agent="Mozilla/5.0 (Macintosh; Intel Mac OS X 10_14_6) AppleWebKit/537.36 (KHTML, like Gecko) Chrome/80.0.3987.149 Safari/537.36" etag="HrZzRtmGwXRa83CqfnCi" version="12.8.8" type="github">
  <diagram id="QY-BEr07iG2nazsXIPME" name="Page-1">
    <mxGraphModel dx="1412" dy="851" grid="1" gridSize="10" guides="1" tooltips="1" connect="1" arrows="1" fold="1" page="1" pageScale="1" pageWidth="850" pageHeight="1100" math="0" shadow="0">
      <root>
        <mxCell id="0" />
        <mxCell id="1" parent="0" />
        <mxCell id="mrsmtRNVJ3jS9vpmie5T-15" value="Client" style="shape=umlLifeline;perimeter=lifelinePerimeter;whiteSpace=wrap;html=1;container=1;collapsible=0;recursiveResize=0;outlineConnect=0;fillColor=#f8cecc;strokeColor=#b85450;" parent="1" vertex="1">
          <mxGeometry x="120" y="40" width="100" height="380" as="geometry" />
        </mxCell>
        <mxCell id="mrsmtRNVJ3jS9vpmie5T-16" value="" style="html=1;points=[];perimeter=orthogonalPerimeter;" parent="mrsmtRNVJ3jS9vpmie5T-15" vertex="1">
          <mxGeometry x="45" y="150" width="10" height="230" as="geometry" />
        </mxCell>
        <mxCell id="mrsmtRNVJ3jS9vpmie5T-45" value="" style="html=1;points=[];perimeter=orthogonalPerimeter;" parent="mrsmtRNVJ3jS9vpmie5T-15" vertex="1">
          <mxGeometry x="45" y="320" width="10" height="40" as="geometry" />
        </mxCell>
        <mxCell id="mrsmtRNVJ3jS9vpmie5T-46" value="6.selector.select()轮询发现可读连接" style="edgeStyle=orthogonalEdgeStyle;html=1;align=left;spacingLeft=2;endArrow=block;rounded=0;entryX=1;entryY=0;" parent="mrsmtRNVJ3jS9vpmie5T-15" target="mrsmtRNVJ3jS9vpmie5T-45" edge="1">
          <mxGeometry relative="1" as="geometry">
            <mxPoint x="50" y="300" as="sourcePoint" />
            <Array as="points">
              <mxPoint x="75" y="300" />
            </Array>
          </mxGeometry>
        </mxCell>
        <mxCell id="mrsmtRNVJ3jS9vpmie5T-18" value="Server" style="shape=umlLifeline;perimeter=lifelinePerimeter;whiteSpace=wrap;html=1;container=1;collapsible=0;recursiveResize=0;outlineConnect=0;fillColor=#d5e8d4;strokeColor=#82b366;" parent="1" vertex="1">
          <mxGeometry x="400" y="40" width="100" height="380" as="geometry" />
        </mxCell>
        <mxCell id="mrsmtRNVJ3jS9vpmie5T-19" value="" style="html=1;points=[];perimeter=orthogonalPerimeter;" parent="mrsmtRNVJ3jS9vpmie5T-18" vertex="1">
          <mxGeometry x="45" y="90" width="10" height="40" as="geometry" />
        </mxCell>
        <mxCell id="mrsmtRNVJ3jS9vpmie5T-20" value="1.&amp;nbsp;Selector.open() 创建选择器&lt;br&gt;2. ServerSocketChannel.open() 打开监听通道" style="edgeStyle=orthogonalEdgeStyle;html=1;align=left;spacingLeft=2;endArrow=block;rounded=0;entryX=1;entryY=0;" parent="mrsmtRNVJ3jS9vpmie5T-18" target="mrsmtRNVJ3jS9vpmie5T-19" edge="1">
          <mxGeometry relative="1" as="geometry">
            <mxPoint x="50" y="70" as="sourcePoint" />
            <Array as="points">
              <mxPoint x="75" y="70" />
            </Array>
          </mxGeometry>
        </mxCell>
        <mxCell id="mrsmtRNVJ3jS9vpmie5T-21" value="" style="edgeStyle=orthogonalEdgeStyle;html=1;align=left;spacingLeft=2;endArrow=block;rounded=0;entryX=1;entryY=0;" parent="mrsmtRNVJ3jS9vpmie5T-18" target="mrsmtRNVJ3jS9vpmie5T-23" edge="1">
          <mxGeometry relative="1" as="geometry">
            <mxPoint x="55" y="150" as="sourcePoint" />
            <Array as="points">
              <mxPoint x="55" y="140" />
              <mxPoint x="80" y="140" />
              <mxPoint x="80" y="170" />
            </Array>
          </mxGeometry>
        </mxCell>
        <mxCell id="mrsmtRNVJ3jS9vpmie5T-22" value="selector.select()轮询就绪连接" style="text;html=1;align=center;verticalAlign=middle;resizable=0;points=[];labelBackgroundColor=#ffffff;" parent="mrsmtRNVJ3jS9vpmie5T-21" vertex="1" connectable="0">
          <mxGeometry x="-0.2857" y="-8" relative="1" as="geometry">
            <mxPoint x="9" y="2" as="offset" />
          </mxGeometry>
        </mxCell>
        <mxCell id="mrsmtRNVJ3jS9vpmie5T-23" value="" style="html=1;points=[];perimeter=orthogonalPerimeter;" parent="mrsmtRNVJ3jS9vpmie5T-18" vertex="1">
          <mxGeometry x="45" y="170" width="15" height="210" as="geometry" />
        </mxCell>
        <mxCell id="mrsmtRNVJ3jS9vpmie5T-41" value="" style="endArrow=classic;html=1;entryX=1.067;entryY=0.776;entryDx=0;entryDy=0;entryPerimeter=0;exitX=1.2;exitY=0.552;exitDx=0;exitDy=0;exitPerimeter=0;" parent="mrsmtRNVJ3jS9vpmie5T-18" source="mrsmtRNVJ3jS9vpmie5T-23" target="mrsmtRNVJ3jS9vpmie5T-23" edge="1">
          <mxGeometry width="50" height="50" relative="1" as="geometry">
            <mxPoint y="320" as="sourcePoint" />
            <mxPoint x="50" y="270" as="targetPoint" />
            <Array as="points">
              <mxPoint x="109" y="286" />
              <mxPoint x="109" y="333" />
            </Array>
          </mxGeometry>
        </mxCell>
        <mxCell id="mrsmtRNVJ3jS9vpmie5T-24" value="1.connect" style="html=1;verticalAlign=bottom;endArrow=block;exitX=0.9;exitY=0.113;exitDx=0;exitDy=0;exitPerimeter=0;entryX=0.067;entryY=0.095;entryDx=0;entryDy=0;entryPerimeter=0;" parent="1" source="mrsmtRNVJ3jS9vpmie5T-16" target="mrsmtRNVJ3jS9vpmie5T-23" edge="1">
          <mxGeometry width="80" relative="1" as="geometry">
            <mxPoint x="174" y="179.03999999999996" as="sourcePoint" />
            <mxPoint x="450" y="220" as="targetPoint" />
          </mxGeometry>
        </mxCell>
        <mxCell id="mrsmtRNVJ3jS9vpmie5T-25" value="3.send 发送数据，&lt;br&gt;同时注册关注&lt;span style=&quot;font-size: 12px ; background-color: rgb(248 , 249 , 250)&quot;&gt;服务端到客户端连接可读事件&lt;/span&gt;" style="html=1;verticalAlign=bottom;endArrow=block;entryX=-0.133;entryY=0.29;entryDx=0;entryDy=0;entryPerimeter=0;strokeColor=#FF0000;" parent="1" target="mrsmtRNVJ3jS9vpmie5T-23" edge="1">
          <mxGeometry x="0.0034" width="80" relative="1" as="geometry">
            <mxPoint x="176" y="250" as="sourcePoint" />
            <mxPoint x="446" y="271.03999999999996" as="targetPoint" />
            <mxPoint as="offset" />
          </mxGeometry>
        </mxCell>
        <mxCell id="mrsmtRNVJ3jS9vpmie5T-26" value="4.客户端至服务端通道&amp;nbsp;&lt;span style=&quot;font-size: 12px ; background-color: rgb(248 , 249 , 250)&quot;&gt;SelectionKey.OP_READ，接收数据&lt;/span&gt;" style="html=1;verticalAlign=bottom;endArrow=block;" parent="1" source="mrsmtRNVJ3jS9vpmie5T-18" target="mrsmtRNVJ3jS9vpmie5T-18" edge="1">
          <mxGeometry x="0.1657" y="-91" width="80" relative="1" as="geometry">
            <mxPoint x="380" y="430" as="sourcePoint" />
            <mxPoint x="510" y="320" as="targetPoint" />
            <Array as="points">
              <mxPoint x="520" y="272" />
              <mxPoint x="520" y="300" />
            </Array>
            <mxPoint x="91" y="81" as="offset" />
          </mxGeometry>
        </mxCell>
        <mxCell id="mrsmtRNVJ3jS9vpmie5T-27" value="收到数据，准备发送客户端请求的数据" style="text;html=1;align=center;verticalAlign=middle;resizable=0;points=[];autosize=1;" parent="1" vertex="1">
          <mxGeometry x="460" y="300" width="220" height="20" as="geometry" />
        </mxCell>
        <mxCell id="mrsmtRNVJ3jS9vpmie5T-29" value="5.数据准备完成，写入通道缓冲区，连接可读" style="text;html=1;align=center;verticalAlign=middle;resizable=0;points=[];autosize=1;" parent="1" vertex="1">
          <mxGeometry x="445" y="340" width="250" height="20" as="geometry" />
        </mxCell>
        <mxCell id="mrsmtRNVJ3jS9vpmie5T-31" value="&lt;span style=&quot;color: rgba(0 , 0 , 0 , 0) ; font-family: monospace ; font-size: 0px&quot;&gt;%3CmxGraphModel%3E%3Croot%3E%3CmxCell%20id%3D%220%22%2F%3E%3CmxCell%20id%3D%221%22%20parent%3D%220%22%2F%3E%3CmxCell%20id%3D%222%22%20value%3D%22%E6%94%B6%E5%88%B0%E8%AF%B7%E6%B1%82%EF%BC%8C%E4%BD%86%E6%95%B0%E6%8D%AE%E6%9C%AA%E5%87%86%E5%A4%87%E5%AE%8C%E6%AF%95%EF%BC%8C%E5%BC%80%E6%96%B0%E7%BA%BF%E7%A8%8B%E5%A4%84%E7%90%86%22%20style%3D%22text%3Bhtml%3D1%3Balign%3Dcenter%3BverticalAlign%3Dmiddle%3Bresizable%3D0%3Bpoints%3D%5B%5D%3Bautosize%3D1%3B%22%20vertex%3D%221%22%20parent%3D%221%22%3E%3CmxGeometry%20x%3D%22420%22%20y%3D%22300%22%20width%3D%22260%22%20height%3D%2220%22%20as%3D%22geometry%22%2F%3E%3C%2FmxCell%3E%3C%2Froot%3E%3C%2FmxGraphModel%3E&lt;/span&gt;" style="text;html=1;align=center;verticalAlign=middle;resizable=0;points=[];autosize=1;" parent="1" vertex="1">
          <mxGeometry x="522" y="238" width="20" height="20" as="geometry" />
        </mxCell>
        <mxCell id="mrsmtRNVJ3jS9vpmie5T-32" value="2.socket 连接建立，将其注册到选择器上，并指定关注其事件，&lt;br&gt;比如&amp;nbsp;SelectionKey.OP_READ 可读事件" style="text;html=1;align=center;verticalAlign=middle;resizable=0;points=[];autosize=1;" parent="1" vertex="1">
          <mxGeometry x="460" y="215" width="350" height="30" as="geometry" />
        </mxCell>
        <mxCell id="mrsmtRNVJ3jS9vpmie5T-34" value="" style="endArrow=classic;html=1;entryX=1.3;entryY=0.37;entryDx=0;entryDy=0;entryPerimeter=0;exitX=0.067;exitY=0.4;exitDx=0;exitDy=0;exitPerimeter=0;dashed=1;" parent="1" source="mrsmtRNVJ3jS9vpmie5T-23" target="mrsmtRNVJ3jS9vpmie5T-16" edge="1">
          <mxGeometry width="50" height="50" relative="1" as="geometry">
            <mxPoint x="400" y="360" as="sourcePoint" />
            <mxPoint x="450" y="310" as="targetPoint" />
          </mxGeometry>
        </mxCell>
        <mxCell id="mrsmtRNVJ3jS9vpmie5T-36" value="立即返回" style="text;html=1;align=center;verticalAlign=middle;resizable=0;points=[];labelBackgroundColor=#ffffff;" parent="mrsmtRNVJ3jS9vpmie5T-34" vertex="1" connectable="0">
          <mxGeometry x="0.1186" y="2" relative="1" as="geometry">
            <mxPoint as="offset" />
          </mxGeometry>
        </mxCell>
        <mxCell id="mrsmtRNVJ3jS9vpmie5T-47" value="7.read 读取缓冲区数据" style="html=1;verticalAlign=bottom;endArrow=block;exitX=1;exitY=0.725;exitDx=0;exitDy=0;exitPerimeter=0;" parent="1" source="mrsmtRNVJ3jS9vpmie5T-45" target="mrsmtRNVJ3jS9vpmie5T-18" edge="1">
          <mxGeometry width="80" relative="1" as="geometry">
            <mxPoint x="380" y="340" as="sourcePoint" />
            <mxPoint x="460" y="340" as="targetPoint" />
          </mxGeometry>
        </mxCell>
      </root>
    </mxGraphModel>
  </diagram>
</mxfile>
